<?xml version="1.0" encoding="UTF-8" standalone="no"?>
<!-- Generator: Adobe Illustrator 18.1.1, SVG Export Plug-In . SVG Version: 6.00 Build 0)  -->

<svg
   xmlns:dc="http://purl.org/dc/elements/1.1/"
   xmlns:cc="http://creativecommons.org/ns#"
   xmlns:rdf="http://www.w3.org/1999/02/22-rdf-syntax-ns#"
   xmlns:svg="http://www.w3.org/2000/svg"
   xmlns="http://www.w3.org/2000/svg"
   xmlns:sodipodi="http://sodipodi.sourceforge.net/DTD/sodipodi-0.dtd"
   xmlns:inkscape="http://www.inkscape.org/namespaces/inkscape"
   version="1.1"
   id="Capa_1"
   x="0px"
   y="0px"
   viewBox="0 0 250.579 250.579"
   style="enable-background:new 0 0 250.579 250.579;;opacity:1"
   xml:space="preserve"
   sodipodi:docname="menur.svg"
   inkscape:version="0.92.0 r15299"><sodipodi:namedview
     pagecolor="#ffffff"
     bordercolor="#666666"
     borderopacity="1"
     objecttolerance="10"
     gridtolerance="10"
     guidetolerance="10"
     inkscape:pageopacity="0"
     inkscape:pageshadow="2"
     inkscape:window-width="1366"
     inkscape:window-height="745"
     id="namedview36"
     showgrid="false"
     inkscape:zoom="0.94181877"
     inkscape:cx="9.0250909"
     inkscape:cy="125.2895"
     inkscape:window-x="-8"
     inkscape:window-y="-8"
     inkscape:window-maximized="1"
     inkscape:current-layer="Capa_1" /><metadata
     id="metadata40"><rdf:RDF><cc:Work
         rdf:about=""><dc:format>image/svg+xml</dc:format><dc:type
           rdf:resource="http://purl.org/dc/dcmitype/StillImage" /><dc:title></dc:title></cc:Work></rdf:RDF></metadata><defs
     id="defs38" /><g
     id="Menu"><path
       id="path2"
       d="M22.373,76.068h205.832c12.356,0,22.374-10.017,22.374-22.373   c0-12.356-10.017-22.373-22.374-22.373H22.373C10.017,31.323,0,41.339,0,53.696C0,66.052,10.017,76.068,22.373,76.068z    M228.205,102.916H22.373C10.017,102.916,0,112.933,0,125.289c0,12.357,10.017,22.373,22.373,22.373h205.832   c12.356,0,22.374-10.016,22.374-22.373C250.579,112.933,240.561,102.916,228.205,102.916z M228.205,174.51H22.373   C10.017,174.51,0,184.526,0,196.883c0,12.356,10.017,22.373,22.373,22.373h205.832c12.356,0,22.374-10.017,22.374-22.373   C250.579,184.526,240.561,174.51,228.205,174.51z"
       style="fill-rule:evenodd;clip-rule:evenodd;;opacity:1" /></g><g
     id="g5" /><g
     id="g7" /><g
     id="g9" /><g
     id="g11" /><g
     id="g13" /><g
     id="g15" /><g
     id="g17" /><g
     id="g19" /><g
     id="g21" /><g
     id="g23" /><g
     id="g25" /><g
     id="g27" /><g
     id="g29" /><g
     id="g31" /><g
     id="g33" /><path
     style="fill:#917c6f;stroke-width:1.06177545"
     d="M 13.166015,216.53674 C 4.4864573,211.961 0.53976032,205.0199 1.1518456,195.40728 c 0.5103123,-8.0143 3.9644149,-13.673 10.7015434,-17.53185 l 4.497952,-2.57631 H 125.18332 234.0153 l 5.01521,2.9481 c 12.61074,7.413 14.59004,24.52919 3.9483,34.14336 -2.36309,2.13491 -5.49715,4.33813 -6.96459,4.89605 -1.63514,0.62168 -44.67196,0.99794 -111.16547,0.97188 -96.824796,-0.0379 -108.8401,-0.22317 -111.682735,-1.72177 z"
     id="path560"
     inkscape:connector-curvature="0" /><path
     style="fill:#917c6f;stroke-width:1.06177545"
     d="m 15.289566,145.89118 c -15.02333771,-5.29953 -19.3844345,-25.81873 -7.7867114,-36.6369 6.2822464,-5.85999 1.3770007,-5.62695 117.9118054,-5.60168 102.31477,0.0222 107.74883,0.11868 111.86107,1.98642 8.89029,4.03788 14.62478,15.36349 12.22361,24.14159 -1.6858,6.16284 -4.80651,10.58977 -9.79032,13.8882 l -4.47606,2.96237 -108.37903,0.19182 C 52.863505,146.95395 17.46419,146.65828 15.289566,145.89118 Z"
     id="path562"
     inkscape:connector-curvature="0" /><path
     style="fill:#a02c2c;stroke-width:1.06177545"
     d="M 16.555069,74.507261 C 10.910774,72.989778 5.1741518,68.134612 2.5892606,62.687358 0.57383917,58.440173 0.47152405,49.505057 2.3859467,44.932085 4.7137835,39.371593 11.608609,33.927957 18.101476,32.524285 22.248755,31.627698 52.179731,31.385479 128.89953,31.627644 l 105.11577,0.331796 5.01521,2.948102 c 6.9202,4.067913 10.73629,10.712969 10.72897,18.682655 -0.006,6.790086 -1.7942,10.924229 -6.87154,15.888261 -6.89701,6.743099 -3.42425,6.552002 -117.63189,6.472997 C 44.079535,75.895301 20.555406,75.582761 16.555069,74.507261 Z"
     id="path564"
     inkscape:connector-curvature="0" /><path
     style="fill:#a02c2c;stroke-width:1.06177545"
     d="M 125.18332,146.1003 C 25.751042,145.61995 14.986096,145.40287 12.101733,143.82 5.4846538,140.18872 1.6744118,133.2623 1.6744118,124.86479 c 0,-10.75079 6.497001,-18.32392 17.0075462,-19.8246 7.829309,-1.11785 207.222062,-1.09723 214.050932,0.0221 9.06815,1.48643 16.63152,10.73324 16.63152,20.33334 0,7.63249 -2.99593,12.34819 -12.69467,19.98195 -1.21088,0.95306 -27.93603,1.1263 -111.48642,0.72268 z"
     id="path566"
     inkscape:connector-curvature="0" /><path
     style="fill:#a02c2c;stroke-width:1.06177545"
     d="m 46.081052,217.2768 c -21.328517,-0.38062 -32.554911,-0.97678 -33.976812,-1.80429 -2.7097337,-1.57699 -7.3540271,-6.57745 -8.8953568,-9.57755 -0.6553305,-1.27555 -1.1915099,-5.23643 -1.1915099,-8.80194 0,-8.29166 2.7686326,-13.90456 8.7806227,-17.80112 2.470364,-1.60112 4.730469,-3.1545 5.022457,-3.45196 0.723568,-0.73711 218.058747,-0.69129 218.725737,0.0461 0.29198,0.32282 2.35479,1.69561 4.58402,3.05066 12.36233,7.51451 13.47566,24.01182 2.28522,33.86204 l -4.64954,4.09269 -49.59503,0.70479 c -51.43538,0.73095 -86.706,0.65109 -141.089808,-0.31943 z"
     id="path568"
     inkscape:connector-curvature="0" /></svg>